<svg width="35" height="35" viewBox="0 0 268 235" fill="none" xmlns="http://www.w3.org/2000/svg">
<path d="M268 114.301V110.777H261.595C249.796 110.777 238.672 110.777 228.559 110.777H216.085C209.68 110.483 198.219 109.896 195.185 104.609C194.174 102.847 194.174 100.791 194.511 100.203C195.185 95.7979 200.242 92.8609 212.04 86.3994C219.457 82.2876 228.896 77.2947 238.335 69.9521C242.043 67.0151 245.414 63.7843 248.785 60.2599L250.47 58.7914L249.122 57.0292C247.436 54.6796 245.751 52.33 244.065 50.274L241.369 47.0433L238.672 49.9803C235.301 53.7985 231.592 57.0292 228.221 59.9662C219.794 66.7214 211.366 71.1269 203.95 75.2387C191.814 81.7002 181.026 87.2805 179.678 98.7349C179.341 101.085 179.341 105.784 182.038 110.483C182.038 110.483 182.038 110.777 182.375 110.777H144.282C147.653 99.0286 157.766 80.8191 185.746 67.8962C187.432 67.0151 191.814 64.9592 196.533 61.141C199.23 58.7914 201.927 55.8544 203.95 53.2111C209.343 45.8685 211.029 31.1834 211.366 22.9597V21.1975L209.006 20.6101C206.309 19.1416 203.275 17.3794 200.579 15.9108L195.522 13.5612L195.185 18.5542C194.511 34.4141 191.477 43.8126 189.791 46.4559C187.769 49.0992 185.409 51.1551 184.735 51.7425C181.363 54.3859 178.33 55.8544 176.981 56.4418C162.148 63.1969 150.35 72.008 141.585 82.875V0.638306H136.865C134.843 0.638306 132.82 0.638306 130.798 0.638306H126.078V29.4212L125.741 43.2252C126.078 48.5118 124.73 58.7914 118.662 61.4347C116.639 62.3158 114.279 62.3158 113.605 62.0221C108.548 61.4347 105.177 57.0292 97.761 47.0433C93.0415 40.2881 87.3107 32.0645 78.546 23.8408C76.1862 21.4912 73.1522 19.1416 69.7811 16.4982L68.4328 15.3234L66.4101 16.4982C63.7132 17.9668 61.0164 19.1416 58.6567 20.6101L54.9485 22.9597L58.3195 25.3093C61.6905 27.6589 64.7246 30.3023 67.7586 33.2393C75.512 40.5819 80.9057 48.2181 85.2881 54.6796C92.7045 65.2529 99.1095 74.3576 112.257 75.8261C114.616 76.1199 120.01 76.4136 125.741 73.7702C126.078 73.7702 126.078 73.7702 126.415 73.4765V109.308C112.931 106.078 92.3673 97.5602 77.5346 73.4765C76.8603 72.3017 74.5006 68.1899 69.7811 64.0781C69.7811 64.0781 65.7358 60.5536 60.6792 57.6166C52.2515 52.9174 35.0592 51.4488 25.6202 51.1551H23.5975L22.5862 52.6236C20.5636 54.9733 18.8781 57.6166 17.1925 59.9662L14.4956 64.0781H20.2265C38.4303 64.6655 49.5547 67.3088 52.2515 68.7773C53.6 69.6584 55.9598 71.1269 58.6567 73.1828C61.6906 75.8262 63.3761 78.4695 64.0504 79.6443C71.8038 92.5672 82.2541 102.847 94.3899 110.483H0V114.595C0 115.476 0 116.357 0 117.238C0 118.413 0 119.294 0 120.469V123.993H36.7447H49.2176C56.2968 123.993 67.4214 125.168 70.1183 130.161C71.1296 131.923 71.1296 133.979 70.7925 134.567C70.1183 138.972 65.0617 141.909 53.9372 148.077C46.1837 152.189 36.7447 157.182 27.3057 164.818C24.6088 166.874 21.9119 169.517 18.5409 172.454L16.8553 173.923L18.2038 175.685C19.8893 178.035 21.2378 180.384 23.2605 182.44L25.6202 185.671L28.317 182.734C31.3509 179.797 34.3849 176.86 37.4189 174.51C45.8466 167.755 54.2742 163.35 62.0277 159.238C74.1635 153.07 84.951 147.49 86.2994 136.329C86.6365 133.979 86.6365 129.28 83.9397 124.581C83.9397 124.581 83.6025 124.287 83.6025 123.993H124.393C120.684 135.448 110.908 153.657 83.2654 166.287C79.2202 168.049 75.512 170.398 72.478 173.042L71.8038 173.923C71.1296 174.217 70.7925 174.804 70.1183 175.391L69.7811 175.685C67.7585 177.741 65.7359 180.091 65.0616 181.265C59.6679 188.608 57.9824 203.293 57.6452 211.81V213.573L59.3309 214.454C62.0277 215.922 65.0617 217.684 67.7586 219.153L72.478 221.503L72.8151 216.51C73.4893 200.65 76.5232 190.958 78.2088 188.608C80.2314 185.965 82.2541 183.909 83.2654 183.028C86.6365 180.384 89.6705 178.916 91.0189 178.328C105.852 171.573 117.65 162.468 126.415 151.895C126.415 171.867 126.415 198.006 126.415 231.488V234.426H131.135C132.146 234.426 133.157 234.426 134.169 234.426C135.18 234.426 136.191 234.426 137.202 234.426H141.922V205.349L141.585 191.251C141.248 185.377 142.933 175.391 148.664 173.042C150.687 172.161 153.047 172.161 153.721 172.454C158.777 173.042 162.148 177.447 169.228 187.139C173.61 193.307 179.678 202.118 188.443 210.342C191.14 212.692 193.836 215.335 197.545 217.978L199.23 219.447L201.253 218.272C203.95 216.803 206.309 215.629 209.006 214.16L212.714 212.104L209.343 209.755C205.972 207.111 202.601 204.468 199.567 201.825C191.814 194.482 186.757 187.139 182.038 180.678C174.621 170.105 168.216 161 155.069 159.531C152.372 159.238 146.979 159.238 141.585 161.587C141.248 161.587 141.248 161.587 140.911 161.881V127.518C153.721 131.042 173.273 140.147 187.094 162.468C189.117 165.993 191.814 169.224 194.848 171.867C195.859 172.748 199.23 175.685 203.95 178.328C210.355 181.853 224.176 184.496 241.369 185.083H243.391L244.402 183.615C246.425 181.265 248.111 178.622 249.796 175.979L252.493 171.573H246.762C227.21 171.279 215.074 168.636 212.04 166.874C208.669 165.112 205.972 162.762 205.635 162.468C202.601 159.825 200.916 157.182 200.242 156.007C192.488 143.084 182.038 132.804 169.902 125.168C185.746 125.168 204.961 125.168 228.221 125.168H267.326V121.644C267.326 120.469 267.326 119.588 267.326 118.413C268 116.357 268 115.476 268 114.301Z" fill="#FE5D3B"/>
</svg>
