<svg width="32" height="32" viewBox="0 0 32 32" fill="none" xmlns="http://www.w3.org/2000/svg">
<path d="M16 31C24.2843 31 31 24.2843 31 16C31 7.71573 24.2843 1 16 1C7.71573 1 1 7.71573 1 16C1 24.2843 7.71573 31 16 31Z" fill="black"/>
<path d="M16 2C18.7689 2 21.4757 2.82109 23.778 4.35943C26.0803 5.89777 27.8747 8.08427 28.9343 10.6424C29.9939 13.2006 30.2712 16.0155 29.731 18.7313C29.1908 21.447 27.8574 23.9416 25.8995 25.8995C23.9416 27.8574 21.447 29.1908 18.7313 29.731C16.0155 30.2712 13.2006 29.9939 10.6424 28.9343C8.08427 27.8747 5.89777 26.0803 4.35943 23.778C2.82109 21.4757 2 18.7689 2 16C2 12.287 3.475 8.72601 6.1005 6.1005C8.72601 3.475 12.287 2 16 2V2ZM16 0C11.7565 0 7.68687 1.68571 4.68629 4.68629C1.68571 7.68687 0 11.7565 0 16H0C0 20.2435 1.68571 24.3131 4.68629 27.3137C7.68687 30.3143 11.7565 32 16 32C20.2435 32 24.3131 30.3143 27.3137 27.3137C30.3143 24.3131 32 20.2435 32 16C32 11.7565 30.3143 7.68687 27.3137 4.68629C24.3131 1.68571 20.2435 0 16 0V0Z" fill="black"/>
<path d="M9.20752 23.6911C8.98428 23.3425 8.88138 22.923 8.9162 22.5033C8.88931 22.0366 8.88931 21.5686 8.9162 21.1018C8.9162 20.5555 9.11788 19.724 9.29716 18.6076L9.56607 16.7785C9.74534 15.7095 9.8798 14.593 10.0142 13.4291C10.1149 12.6413 10.1748 11.8483 10.1935 11.0536C10.1935 10.4835 9.99184 10.1984 9.61088 10.1984C9.20574 10.2433 8.82293 10.4173 8.51284 10.6973C7.99411 11.2033 7.54861 11.7876 7.1907 12.4314C7.13563 12.5331 7.05773 12.6188 6.96392 12.681C6.8701 12.7431 6.76326 12.7798 6.65288 12.7877C6.55594 12.773 6.46407 12.7326 6.38573 12.6704C6.3074 12.6081 6.24514 12.5259 6.20469 12.4314C6.10227 12.286 6.04018 12.1132 6.02542 11.9325C5.9918 11.7362 5.9918 11.535 6.02542 11.3386C6.12359 11.085 6.25158 10.8456 6.40638 10.626C6.93267 9.85879 7.58558 9.19886 8.33356 8.67812C9.00825 8.24128 9.78389 8.01106 10.5745 8.01299C10.8486 7.99534 11.123 8.04149 11.3785 8.14818C11.634 8.25488 11.8644 8.41954 12.0535 8.63061C12.4027 9.18333 12.5683 9.84363 12.5241 10.5072C12.4968 11.5574 12.4069 12.6047 12.2552 13.6428C12.6792 12.0737 13.447 10.633 14.4961 9.43827C14.9138 8.98651 15.4124 8.62774 15.9627 8.38299C16.513 8.13824 17.1038 8.01245 17.7006 8.01299C18.1104 7.97222 18.5237 8.02772 18.9111 8.17553C19.2984 8.32334 19.6502 8.55982 19.9415 8.86816C20.4661 9.53024 20.7308 10.3806 20.681 11.2436C20.6609 11.9222 20.5859 12.5977 20.4569 13.2628L19.4709 18.5838C19.3711 19.1079 19.3186 19.6408 19.314 20.1754C19.2797 20.6022 19.3999 21.0268 19.6502 21.3631C19.7744 21.4993 19.9246 21.6057 20.0908 21.6754C20.257 21.745 20.4353 21.7762 20.6138 21.7669C21.0122 21.7454 21.395 21.5963 21.7118 21.3394C22.2036 20.9477 22.6478 20.4929 23.034 19.9853C23.0859 19.9039 23.1561 19.8374 23.2382 19.7918C23.3203 19.7462 23.4118 19.7229 23.5046 19.724C23.5769 19.7223 23.6484 19.7412 23.7115 19.7788C23.7746 19.8165 23.8269 19.8714 23.8631 19.9378C23.9621 20.1261 24.0087 20.3402 23.9976 20.5555C24.0199 20.9735 23.9007 21.3863 23.6614 21.7194C23.1564 22.4053 22.5421 22.9921 21.8463 23.4535C21.2668 23.8078 20.6104 23.9961 19.9415 23.9999C19.1058 24.0074 18.3009 23.6661 17.7006 23.0497C17.3857 22.7163 17.1364 22.32 16.9671 21.8836C16.7979 21.4473 16.712 20.9797 16.7146 20.5079C16.6835 20.0572 16.6835 19.6047 16.7146 19.1539C16.7146 18.6551 16.8939 18.0612 17.0283 17.3011L17.7454 13.8804L17.8799 13.2628L18.104 12.4314C18.104 12.1701 18.104 11.9325 18.104 11.6712C18.1161 11.4985 18.0946 11.3249 18.0406 11.1614C17.9866 10.9979 17.9014 10.848 17.7902 10.721C17.6731 10.5977 17.5327 10.5022 17.3782 10.4408C17.2236 10.3794 17.0586 10.3534 16.8939 10.3647C16.4623 10.383 16.0393 10.4984 15.6529 10.7032C15.2666 10.9079 14.9257 11.1974 14.6529 11.5524C13.7703 12.6954 13.1079 14.0109 12.7033 15.4244C12.0073 17.6473 11.5267 19.9396 11.2692 22.2658C11.2431 22.7317 11.1207 23.1859 10.9106 23.5961C10.7972 23.7325 10.6546 23.8382 10.4947 23.9043C10.3349 23.9704 10.1625 23.995 9.99184 23.9761C9.70805 23.9744 9.43259 23.8743 9.20752 23.6911Z" fill="white"/>
<path d="M24.3616 24.5629C24.1167 24.2887 23.9876 23.9303 24.0016 23.5629C23.9829 23.1455 24.1262 22.7371 24.4016 22.4229C24.5532 22.2792 24.7324 22.1679 24.9284 22.0957C25.1244 22.0235 25.333 21.9919 25.5416 22.0029C25.9189 21.9792 26.2911 22.1009 26.5816 22.3429C26.7086 22.4748 26.8064 22.6321 26.8684 22.8044C26.9305 22.9768 26.9554 23.1603 26.9416 23.3429C26.9573 23.7659 26.8147 24.1795 26.5416 24.5029C26.394 24.6477 26.2188 24.7612 26.0263 24.8368C25.8339 24.9124 25.6282 24.9485 25.4216 24.9429C25.2283 24.9552 25.0346 24.9278 24.8523 24.8625C24.67 24.7971 24.503 24.6952 24.3616 24.5629Z" fill="white"/>
</svg>
