<svg width="32" height="32" viewBox="0 0 32 32" fill="none" xmlns="http://www.w3.org/2000/svg">
<path d="M27 1H5C2.79086 1 1 2.79086 1 5V27C1 29.2091 2.79086 31 5 31H27C29.2091 31 31 29.2091 31 27V5C31 2.79086 29.2091 1 27 1Z" fill="black"/>
<path d="M27 2C27.7956 2 28.5587 2.31607 29.1213 2.87868C29.6839 3.44129 30 4.20435 30 5V27C30 27.7956 29.6839 28.5587 29.1213 29.1213C28.5587 29.6839 27.7956 30 27 30H5C4.20435 30 3.44129 29.6839 2.87868 29.1213C2.31607 28.5587 2 27.7956 2 27V5C2 4.20435 2.31607 3.44129 2.87868 2.87868C3.44129 2.31607 4.20435 2 5 2H27ZM27 0H5C3.67392 0 2.40215 0.526784 1.46447 1.46447C0.526784 2.40215 0 3.67392 0 5L0 27C0 28.3261 0.526784 29.5979 1.46447 30.5355C2.40215 31.4732 3.67392 32 5 32H27C28.3261 32 29.5979 31.4732 30.5355 30.5355C31.4732 29.5979 32 28.3261 32 27V5C32 3.67392 31.4732 2.40215 30.5355 1.46447C29.5979 0.526784 28.3261 0 27 0V0Z" fill="black"/>
<path d="M7.92005 23.6525C7.6472 23.2603 7.52143 22.7884 7.56399 22.3163C7.53113 21.7912 7.53113 21.2646 7.56399 20.7395C7.56399 20.1249 7.81049 19.1895 8.0296 17.9335L8.35827 15.8758C8.57738 14.6732 8.74172 13.4172 8.90605 12.1077C9.02912 11.2215 9.10227 10.3293 9.12516 9.43528C9.12516 8.7939 8.87866 8.47322 8.41305 8.47322C7.91788 8.52375 7.44999 8.7194 7.07099 9.03442C6.43699 9.60367 5.89249 10.261 5.45504 10.9853C5.38774 11.0997 5.29253 11.1962 5.17787 11.2661C5.0632 11.336 4.93262 11.3772 4.79771 11.3861C4.67923 11.3696 4.56694 11.3242 4.4712 11.2542C4.37546 11.1841 4.29936 11.0916 4.24993 10.9853C4.12475 10.8218 4.04886 10.6274 4.03082 10.4241C3.98973 10.2032 3.98973 9.97686 4.03082 9.75597C4.15079 9.47066 4.30724 9.20129 4.49643 8.95425C5.13967 8.09114 5.93768 7.34872 6.85188 6.76288C7.6765 6.27143 8.6245 6.01243 9.59078 6.01461C9.92579 5.99476 10.2612 6.04667 10.5735 6.1667C10.8857 6.28673 11.1673 6.47197 11.3984 6.70943C11.8253 7.33124 12.0277 8.07408 11.9736 8.82063C11.9402 10.0021 11.8305 11.1803 11.6449 12.3482C12.1632 10.5829 13.1016 8.96216 14.3838 7.61805C14.8944 7.10982 15.5038 6.7062 16.1764 6.43086C16.849 6.15551 17.5711 6.014 18.3005 6.01461C18.8014 5.96875 19.3065 6.03118 19.7799 6.19747C20.2533 6.36375 20.6833 6.6298 21.0394 6.97667C21.6805 7.72152 22.0041 8.67817 21.9432 9.64907C21.9186 10.4125 21.827 11.1725 21.6693 11.9206L20.4642 17.9068C20.3423 18.4963 20.2781 19.0959 20.2725 19.6973C20.2305 20.1774 20.3774 20.6552 20.6833 21.0335C20.8351 21.1867 21.0188 21.3064 21.2219 21.3848C21.425 21.4631 21.6429 21.4983 21.861 21.4878C22.3479 21.4636 22.8159 21.2959 23.2031 21.0068C23.8042 20.5662 24.347 20.0545 24.819 19.4835C24.8825 19.3919 24.9683 19.3171 25.0686 19.2658C25.169 19.2145 25.2809 19.1883 25.3942 19.1895C25.4826 19.1876 25.57 19.2089 25.6471 19.2512C25.7242 19.2935 25.7882 19.3553 25.8324 19.4301C25.9534 19.6419 26.0104 19.8828 25.9968 20.1249C26.024 20.5952 25.8783 21.0595 25.5859 21.4344C24.9687 22.2059 24.2179 22.8661 23.3674 23.3852C22.6592 23.7837 21.8569 23.9956 21.0394 23.9999C20.018 24.0083 19.0341 23.6243 18.3005 22.9309C17.9156 22.5559 17.6109 22.11 17.404 21.6191C17.1971 21.1282 17.0922 20.6022 17.0953 20.0714C17.0574 19.5644 17.0574 19.0552 17.0953 18.5482C17.0953 17.987 17.3145 17.3189 17.4788 16.4637L18.3552 12.6154L18.5196 11.9206L18.7935 10.9853C18.7935 10.6913 18.7935 10.4241 18.7935 10.1301C18.8084 9.93577 18.782 9.74053 18.716 9.5566C18.65 9.37267 18.5459 9.204 18.41 9.06115C18.2669 8.92244 18.0952 8.81498 17.9064 8.74587C17.7175 8.67677 17.5158 8.64759 17.3145 8.66028C16.787 8.68091 16.27 8.81071 15.7978 9.04107C15.3256 9.27143 14.909 9.5971 14.5756 9.99649C13.4967 11.2823 12.6871 12.7623 12.1927 14.3525C11.3419 16.8532 10.7546 19.4321 10.4398 22.049C10.408 22.5732 10.2584 23.0841 10.0016 23.5456C9.86295 23.699 9.68867 23.8179 9.49332 23.8923C9.29797 23.9667 9.08722 23.9944 8.87866 23.9731C8.53181 23.9712 8.19514 23.8586 7.92005 23.6525V23.6525Z" fill="white"/>
<path d="M26.3616 26.5629C26.1167 26.2887 25.9876 25.9303 26.0016 25.5629C25.983 25.1455 26.1263 24.7371 26.4016 24.4229C26.5532 24.2793 26.7325 24.1679 26.9284 24.0957C27.1244 24.0235 27.333 23.992 27.5416 24.0029C27.919 23.9792 28.2911 24.1009 28.5816 24.3429C28.7087 24.4748 28.8064 24.6321 28.8685 24.8044C28.9305 24.9768 28.9554 25.1603 28.9416 25.3429C28.9573 25.7659 28.8147 26.1795 28.5416 26.5029C28.394 26.6477 28.2188 26.7612 28.0264 26.8368C27.834 26.9124 27.6283 26.9485 27.4216 26.9429C27.2284 26.9552 27.0346 26.9278 26.8523 26.8625C26.6701 26.7971 26.5031 26.6952 26.3616 26.5629V26.5629Z" fill="white"/>
</svg>
