<svg id="Layer_1" width='150px'  data-name="Layer 1" xmlns="http://www.w3.org/2000/svg" viewBox="0 0 123.56 53.4"><defs><style>.cls-1{fill:#e7e7e7;}</style></defs><path class="cls-1"  d="M108.82,60.84a3.72,3.72,0,0,1-.66-2.56,24.11,24.11,0,0,1,.25-3.08q.24-1.8.86-5.45.08-.49.66-4t1-7.36a44.07,44.07,0,0,0,.41-4.92c0-1.23-.45-1.84-1.35-1.84a4.79,4.79,0,0,0-2.56,1.08,15.46,15.46,0,0,0-3.3,3.47,1.6,1.6,0,0,1-1.27.78,1.26,1.26,0,0,1-1-.56,2,2,0,0,1-.43-1.25,3.57,3.57,0,0,1,.25-1.33,7.18,7.18,0,0,1,.9-1.54,15.77,15.77,0,0,1,4.47-4.24,9.84,9.84,0,0,1,5.16-1.49A4.08,4.08,0,0,1,115.6,28,6.34,6.34,0,0,1,116.73,32a51.4,51.4,0,0,1-.66,6.88,23.32,23.32,0,0,1,5.21-9.2,10.16,10.16,0,0,1,7.42-3.13,6.44,6.44,0,0,1,5.06,1.9,7.4,7.4,0,0,1,1.7,5.11,22.62,22.62,0,0,1-.53,4.38l-2.51,11.72a18.66,18.66,0,0,0-.41,3.52,3.72,3.72,0,0,0,.8,2.59,2.93,2.93,0,0,0,2.24.86,4.57,4.57,0,0,0,2.64-.9,17.38,17.38,0,0,0,3.05-3,1.45,1.45,0,0,1,1.11-.57.93.93,0,0,1,.84.49A2.5,2.5,0,0,1,143,54a3.84,3.84,0,0,1-.78,2.54A15.92,15.92,0,0,1,138,60.33a8.79,8.79,0,0,1-4.39,1.18,7.16,7.16,0,0,1-5.45-2.07,7.73,7.73,0,0,1-2-5.55,21.28,21.28,0,0,1,.22-3c.15-1.06.4-2.42.76-4.06l1.64-7.5c.05-.24.15-.68.29-1.31s.24-1.22.32-1.78a10.41,10.41,0,0,0,.13-1.66,2.93,2.93,0,0,0-.74-2.09,2.74,2.74,0,0,0-2.09-.78c-1.64,0-3.28.88-4.92,2.62s-3.15,4.57-4.55,8.47A74.2,74.2,0,0,0,114,57.79a7.24,7.24,0,0,1-.84,2.9,2.41,2.41,0,0,1-2.15.82A2.94,2.94,0,0,1,108.82,60.84Z" transform="translate(-101.44 -26.56)"/><path class="cls-1" d="M140.66,59.67a7.38,7.38,0,0,1-1.51-4.84,13.3,13.3,0,0,1,1.51-6.2,12.93,12.93,0,0,1,4-4.72,9.08,9.08,0,0,1,5.35-1.78,1.57,1.57,0,0,1,1.2.35,2.91,2.91,0,0,1,.52,1.25,9.48,9.48,0,0,1,1.8-.17q2,0,2,1.44a31.24,31.24,0,0,1-.62,4.1,40.56,40.56,0,0,0-.94,6.55,1.49,1.49,0,0,0,.31,1,1,1,0,0,0,.8.37A3.09,3.09,0,0,0,157,56a33.12,33.12,0,0,0,3-3.26,1.45,1.45,0,0,1,1.11-.57.93.93,0,0,1,.84.49,2.5,2.5,0,0,1,.31,1.35,3.75,3.75,0,0,1-.78,2.54,20.48,20.48,0,0,1-3.57,3.53,6,6,0,0,1-3.64,1.43,3.8,3.8,0,0,1-2.48-.92,5.56,5.56,0,0,1-1.7-2.52c-1.42,2.3-3.21,3.44-5.37,3.44A5,5,0,0,1,140.66,59.67Zm7.25-3.36a6.76,6.76,0,0,0,1.19-2.83l1.52-7.54a5,5,0,0,0-3.18,1.29,8.75,8.75,0,0,0-2.31,3.3,11,11,0,0,0-.86,4.34,2.92,2.92,0,0,0,.51,1.89,1.73,1.73,0,0,0,1.41.61A2.23,2.23,0,0,0,147.91,56.31Z" transform="translate(-101.44 -26.56)"/><path class="cls-1" d="M171.54,52.76a.93.93,0,0,0-.84-.51,1.84,1.84,0,0,0-.94.33c-1.81,1.2-3.8,2.62-6,4.26l.41-2.83a100.27,100.27,0,0,0,1.36-10.4,1.36,1.36,0,0,0-.39-1,2.45,2.45,0,0,0-1.62-.37,3.78,3.78,0,0,0-2.26.56,2.46,2.46,0,0,0-.9,1.74q-.52,4.38-.78,6.59-.32,3.82-.9,7.75l-.28,2.09c-4.16,3.22-7,5.94-8.49,8.14a11.12,11.12,0,0,0-2.25,6.2A4.6,4.6,0,0,0,149,78.67,4.66,4.66,0,0,0,152.38,80q3.93,0,6.48-4.88A49.66,49.66,0,0,0,163,61.68q4.78-3.32,7.66-5.21a2.59,2.59,0,0,0,.9-.94,3.14,3.14,0,0,0,.29-1.47A2.48,2.48,0,0,0,171.54,52.76Zm-16.37,20.8c-.85,1.61-1.63,2.42-2.34,2.42s-1.15-.53-1.15-1.6a7.32,7.32,0,0,1,1.38-3.79,23,23,0,0,1,4.49-4.81A31.57,31.57,0,0,1,155.17,73.56Z" transform="translate(-101.44 -26.56)"/><path class="cls-1" d="M169.92,59.67a7.38,7.38,0,0,1-1.51-4.84,13.3,13.3,0,0,1,1.51-6.2,12.93,12.93,0,0,1,4-4.72,9.08,9.08,0,0,1,5.35-1.78,1.57,1.57,0,0,1,1.2.35,2.91,2.91,0,0,1,.52,1.25,9.48,9.48,0,0,1,1.8-.17q2,0,2,1.44a31.24,31.24,0,0,1-.62,4.1,40.56,40.56,0,0,0-.94,6.55,1.49,1.49,0,0,0,.31,1,1,1,0,0,0,.8.37,3.09,3.09,0,0,0,1.88-1,34.23,34.23,0,0,0,3-3.26,1.42,1.42,0,0,1,1.1-.57.93.93,0,0,1,.84.49,2.5,2.5,0,0,1,.31,1.35,3.75,3.75,0,0,1-.78,2.54,20.48,20.48,0,0,1-3.57,3.53,6,6,0,0,1-3.64,1.43,3.8,3.8,0,0,1-2.48-.92,5.56,5.56,0,0,1-1.7-2.52c-1.42,2.3-3.21,3.44-5.37,3.44A5,5,0,0,1,169.92,59.67Zm7.25-3.36a6.76,6.76,0,0,0,1.19-2.83l1.52-7.54a5,5,0,0,0-3.18,1.29,8.75,8.75,0,0,0-2.31,3.3,11.2,11.2,0,0,0-.86,4.34,2.92,2.92,0,0,0,.51,1.89,1.73,1.73,0,0,0,1.41.61A2.23,2.23,0,0,0,177.17,56.31Z" transform="translate(-101.44 -26.56)"/><path class="cls-1" d="M188.92,59.87a15.48,15.48,0,0,1-.64-5.24,33.36,33.36,0,0,1,1.52-10.12A3,3,0,0,1,191,42.77a4.23,4.23,0,0,1,2.35-.56,2.27,2.27,0,0,1,1.15.21.83.83,0,0,1,.33.78,15.9,15.9,0,0,1-.62,2.95c-.27,1.09-.49,2-.65,2.84a27.11,27.11,0,0,0-.41,3,22,22,0,0,1,2.64-5.41A12.25,12.25,0,0,1,199,43.3a5.49,5.49,0,0,1,3-1.09,2.63,2.63,0,0,1,2,.66,2.92,2.92,0,0,1,.59,2,26,26,0,0,1-.78,4.75c-.22,1-.36,1.72-.45,2.21a23.54,23.54,0,0,1,3-5.61,11.88,11.88,0,0,1,3.26-3.1,6,6,0,0,1,3-.92,2.39,2.39,0,0,1,2.67,2.67,32.5,32.5,0,0,1-.45,4q-.42,2.51-.66,4.74a46.45,46.45,0,0,0-.25,5,3.24,3.24,0,0,1-.63,2.24,2.73,2.73,0,0,1-2.07.67,2.52,2.52,0,0,1-2-.69,3.09,3.09,0,0,1-.61-2.09,41.37,41.37,0,0,1,.57-5.41,38,38,0,0,0,.49-4.18q0-.66-.45-.66c-.35,0-.86.46-1.51,1.37a20.43,20.43,0,0,0-2,3.63,28.92,28.92,0,0,0-1.6,4.76,6.35,6.35,0,0,1-1,2.62,2.47,2.47,0,0,1-1.91.65,2.17,2.17,0,0,1-2-1.29,6.67,6.67,0,0,1-.67-3.13,34.29,34.29,0,0,1,.41-4.51c.21-1.75.32-2.9.32-3.44s-.15-.66-.45-.66-.93.49-1.55,1.48a21.1,21.1,0,0,0-1.83,3.77A34.78,34.78,0,0,0,194,58.24a6.33,6.33,0,0,1-1.05,2.6,2.35,2.35,0,0,1-1.86.67A2.22,2.22,0,0,1,188.92,59.87Z" transform="translate(-101.44 -26.56)"/><path class="cls-1" d="M218.3,60.53a3.61,3.61,0,0,1-.92-2.58,4.15,4.15,0,0,1,1-3,4.54,4.54,0,0,1,5.66-.23,3.46,3.46,0,0,1,.92,2.6,4.22,4.22,0,0,1-1.07,3A3.81,3.81,0,0,1,221,61.51,3.53,3.53,0,0,1,218.3,60.53Z" transform="translate(-101.44 -26.56)"/><circle class="cls-1" cx="62.56" cy="9.44" r="3"/></svg>